<svg width="248" height="38" viewBox="0 0 248 38" fill="none" xmlns="http://www.w3.org/2000/svg">
<circle cx="229" cy="19" r="19" fill="#00C463"/>
<path d="M232.424 16.0227C232.104 15.436 231.664 14.9894 231.104 14.6827C230.544 14.376 229.891 14.2227 229.144 14.2227C228.317 14.2227 227.584 14.4094 226.944 14.7827C226.304 15.156 225.804 15.6894 225.444 16.3827C225.084 17.076 224.904 17.876 224.904 18.7827C224.904 19.716 225.084 20.5294 225.444 21.2227C225.817 21.916 226.331 22.4494 226.984 22.8227C227.637 23.196 228.397 23.3827 229.264 23.3827C230.331 23.3827 231.204 23.1027 231.884 22.5427C232.564 21.9694 233.011 21.176 233.224 20.1627H228.424V18.0227H235.984V20.4627C235.797 21.436 235.397 22.336 234.784 23.1627C234.171 23.9894 233.377 24.656 232.404 25.1627C231.444 25.656 230.364 25.9027 229.164 25.9027C227.817 25.9027 226.597 25.6027 225.504 25.0027C224.424 24.3894 223.571 23.5427 222.944 22.4627C222.331 21.3827 222.024 20.156 222.024 18.7827C222.024 17.4094 222.331 16.1827 222.944 15.1027C223.571 14.0094 224.424 13.1627 225.504 12.5627C226.597 11.9494 227.811 11.6427 229.144 11.6427C230.717 11.6427 232.084 12.0294 233.244 12.8027C234.404 13.5627 235.204 14.636 235.644 16.0227H232.424Z" fill="#232327"/>
<circle cx="187" cy="19" r="19" fill="#4DA6FF"/>
<path d="M187.008 25.9227C185.702 25.9227 184.502 25.616 183.408 25.0027C182.315 24.3894 181.448 23.5427 180.808 22.4627C180.168 21.3694 179.848 20.136 179.848 18.7627C179.848 17.4027 180.168 16.1827 180.808 15.1027C181.448 14.0094 182.315 13.156 183.408 12.5427C184.502 11.9294 185.702 11.6227 187.008 11.6227C188.328 11.6227 189.528 11.9294 190.608 12.5427C191.702 13.156 192.562 14.0094 193.188 15.1027C193.828 16.1827 194.148 17.4027 194.148 18.7627C194.148 20.136 193.828 21.3694 193.188 22.4627C192.562 23.5427 191.702 24.3894 190.608 25.0027C189.515 25.616 188.315 25.9227 187.008 25.9227ZM187.008 23.4227C187.848 23.4227 188.588 23.236 189.228 22.8627C189.868 22.476 190.368 21.9294 190.728 21.2227C191.088 20.516 191.268 19.696 191.268 18.7627C191.268 17.8294 191.088 17.016 190.728 16.3227C190.368 15.616 189.868 15.076 189.228 14.7027C188.588 14.3294 187.848 14.1427 187.008 14.1427C186.168 14.1427 185.422 14.3294 184.768 14.7027C184.128 15.076 183.628 15.616 183.268 16.3227C182.908 17.016 182.728 17.8294 182.728 18.7627C182.728 19.696 182.908 20.516 183.268 21.2227C183.628 21.9294 184.128 22.476 184.768 22.8627C185.422 23.236 186.168 23.4227 187.008 23.4227Z" fill="#232327"/>
<circle cx="145" cy="19" r="19" fill="#FFFFEB"/>
<path d="M144.59 23.5627H149.19V25.7827H141.79V11.8227H144.59V23.5627Z" fill="#232327"/>
<circle cx="103" cy="19" r="19" fill="#FFE478"/>
<path d="M101.857 14.0827V17.5827H106.557V19.8027H101.857V23.5027H107.157V25.7827H99.0575V11.8027H107.157V14.0827H101.857Z" fill="#232327"/>
<circle cx="60.9998" cy="19" r="19" fill="#FFA34C"/>
<path d="M59.8575 14.0827V17.5827H64.5575V19.8027H59.8575V23.5027H65.1575V25.7827H57.0575V11.8027H65.1575V14.0827H59.8575Z" fill="#232327"/>
<circle cx="18.9998" cy="19" r="19" fill="#FF4E41"/>
<path d="M23.697 11.8227V14.0827H17.877V17.6627H22.337V19.8827H17.877V25.7827H15.077V11.8227H23.697Z" fill="#232327"/>
<circle cx="229" cy="19" r="19" fill="#00C463"/>
<path d="M232.424 16.0227C232.104 15.436 231.664 14.9894 231.104 14.6827C230.544 14.376 229.891 14.2227 229.144 14.2227C228.317 14.2227 227.584 14.4094 226.944 14.7827C226.304 15.156 225.804 15.6894 225.444 16.3827C225.084 17.076 224.904 17.876 224.904 18.7827C224.904 19.716 225.084 20.5294 225.444 21.2227C225.817 21.916 226.331 22.4494 226.984 22.8227C227.637 23.196 228.397 23.3827 229.264 23.3827C230.331 23.3827 231.204 23.1027 231.884 22.5427C232.564 21.9694 233.011 21.176 233.224 20.1627H228.424V18.0227H235.984V20.4627C235.797 21.436 235.397 22.336 234.784 23.1627C234.171 23.9894 233.377 24.656 232.404 25.1627C231.444 25.656 230.364 25.9027 229.164 25.9027C227.817 25.9027 226.597 25.6027 225.504 25.0027C224.424 24.3894 223.571 23.5427 222.944 22.4627C222.331 21.3827 222.024 20.156 222.024 18.7827C222.024 17.4094 222.331 16.1827 222.944 15.1027C223.571 14.0094 224.424 13.1627 225.504 12.5627C226.597 11.9494 227.811 11.6427 229.144 11.6427C230.717 11.6427 232.084 12.0294 233.244 12.8027C234.404 13.5627 235.204 14.636 235.644 16.0227H232.424Z" fill="#232327"/>
<circle cx="187" cy="19" r="19" fill="#4DA6FF"/>
<path d="M187.008 25.9227C185.702 25.9227 184.502 25.616 183.408 25.0027C182.315 24.3894 181.448 23.5427 180.808 22.4627C180.168 21.3694 179.848 20.136 179.848 18.7627C179.848 17.4027 180.168 16.1827 180.808 15.1027C181.448 14.0094 182.315 13.156 183.408 12.5427C184.502 11.9294 185.702 11.6227 187.008 11.6227C188.328 11.6227 189.528 11.9294 190.608 12.5427C191.702 13.156 192.562 14.0094 193.188 15.1027C193.828 16.1827 194.148 17.4027 194.148 18.7627C194.148 20.136 193.828 21.3694 193.188 22.4627C192.562 23.5427 191.702 24.3894 190.608 25.0027C189.515 25.616 188.315 25.9227 187.008 25.9227ZM187.008 23.4227C187.848 23.4227 188.588 23.236 189.228 22.8627C189.868 22.476 190.368 21.9294 190.728 21.2227C191.088 20.516 191.268 19.696 191.268 18.7627C191.268 17.8294 191.088 17.016 190.728 16.3227C190.368 15.616 189.868 15.076 189.228 14.7027C188.588 14.3294 187.848 14.1427 187.008 14.1427C186.168 14.1427 185.422 14.3294 184.768 14.7027C184.128 15.076 183.628 15.616 183.268 16.3227C182.908 17.016 182.728 17.8294 182.728 18.7627C182.728 19.696 182.908 20.516 183.268 21.2227C183.628 21.9294 184.128 22.476 184.768 22.8627C185.422 23.236 186.168 23.4227 187.008 23.4227Z" fill="#232327"/>
<circle cx="145" cy="19" r="19" fill="#FFFFEB"/>
<path d="M144.59 23.5627H149.19V25.7827H141.79V11.8227H144.59V23.5627Z" fill="#232327"/>
<circle cx="103" cy="19" r="19" fill="#FFE478"/>
<path d="M101.857 14.0827V17.5827H106.557V19.8027H101.857V23.5027H107.157V25.7827H99.0575V11.8027H107.157V14.0827H101.857Z" fill="#232327"/>
<circle cx="60.9998" cy="19" r="19" fill="#FFA34C"/>
<path d="M59.8575 14.0827V17.5827H64.5575V19.8027H59.8575V23.5027H65.1575V25.7827H57.0575V11.8027H65.1575V14.0827H59.8575Z" fill="#232327"/>
<circle cx="18.9998" cy="19" r="19" fill="#FF4E41"/>
<path d="M23.697 11.8227V14.0827H17.877V17.6627H22.337V19.8827H17.877V25.7827H15.077V11.8227H23.697Z" fill="#232327"/>
</svg>
