<svg width="212" height="32" viewBox="0 0 212 32" fill="none" xmlns="http://www.w3.org/2000/svg">
<circle cx="196" cy="16" r="16" fill="#00C463"/>
<path d="M198.739 14.0616C198.483 13.5923 198.131 13.2349 197.683 12.9896C197.235 12.7443 196.713 12.6216 196.115 12.6216C195.454 12.6216 194.867 12.7709 194.355 13.0696C193.843 13.3683 193.443 13.7949 193.155 14.3496C192.867 14.9043 192.723 15.5443 192.723 16.2696C192.723 17.0163 192.867 17.6669 193.155 18.2216C193.454 18.7763 193.865 19.2029 194.387 19.5016C194.91 19.8003 195.518 19.9496 196.211 19.9496C197.065 19.9496 197.763 19.7256 198.307 19.2776C198.851 18.8189 199.209 18.1843 199.379 17.3736H195.539V15.6616H201.587V17.6136C201.438 18.3923 201.118 19.1123 200.627 19.7736C200.137 20.4349 199.502 20.9683 198.723 21.3736C197.955 21.7683 197.091 21.9656 196.131 21.9656C195.054 21.9656 194.078 21.7256 193.203 21.2456C192.339 20.7549 191.657 20.0776 191.155 19.2136C190.665 18.3496 190.419 17.3683 190.419 16.2696C190.419 15.1709 190.665 14.1896 191.155 13.3256C191.657 12.4509 192.339 11.7736 193.203 11.2936C194.078 10.8029 195.049 10.5576 196.115 10.5576C197.374 10.5576 198.467 10.8669 199.395 11.4856C200.323 12.0936 200.963 12.9523 201.315 14.0616H198.739Z" fill="#232327"/>
<circle cx="160" cy="16" r="16" fill="#4DA6FF"/>
<path d="M160.007 21.9816C158.961 21.9816 158.001 21.7363 157.127 21.2456C156.252 20.7549 155.559 20.0776 155.047 19.2136C154.535 18.3389 154.279 17.3523 154.279 16.2536C154.279 15.1656 154.535 14.1896 155.047 13.3256C155.559 12.4509 156.252 11.7683 157.127 11.2776C158.001 10.7869 158.961 10.5416 160.007 10.5416C161.063 10.5416 162.023 10.7869 162.887 11.2776C163.761 11.7683 164.449 12.4509 164.951 13.3256C165.463 14.1896 165.719 15.1656 165.719 16.2536C165.719 17.3523 165.463 18.3389 164.951 19.2136C164.449 20.0776 163.761 20.7549 162.887 21.2456C162.012 21.7363 161.052 21.9816 160.007 21.9816ZM160.007 19.9816C160.679 19.9816 161.271 19.8323 161.783 19.5336C162.295 19.2243 162.695 18.7869 162.983 18.2216C163.271 17.6563 163.415 17.0003 163.415 16.2536C163.415 15.5069 163.271 14.8563 162.983 14.3016C162.695 13.7363 162.295 13.3043 161.783 13.0056C161.271 12.7069 160.679 12.5576 160.007 12.5576C159.335 12.5576 158.737 12.7069 158.215 13.0056C157.703 13.3043 157.303 13.7363 157.015 14.3016C156.727 14.8563 156.583 15.5069 156.583 16.2536C156.583 17.0003 156.727 17.6563 157.015 18.2216C157.303 18.7869 157.703 19.2243 158.215 19.5336C158.737 19.8323 159.335 19.9816 160.007 19.9816Z" fill="#232327"/>
<circle cx="124" cy="16" r="16" fill="#FFFFEB"/>
<path d="M123.672 20.0936H127.352V21.8696H121.432V10.7016H123.672V20.0936Z" fill="#232327"/>
<circle cx="88" cy="16" r="16" fill="#FFE478"/>
<path d="M87.0862 12.5096V15.3096H90.8462V17.0856H87.0862V20.0456H91.3262V21.8696H84.8462V10.6856H91.3262V12.5096H87.0862Z" fill="#232327"/>
<circle cx="52" cy="16" r="16" fill="#FFA34C"/>
<path d="M51.0862 12.5096V15.3096H54.8462V17.0856H51.0862V20.0456H55.3262V21.8696H48.8462V10.6856H55.3262V12.5096H51.0862Z" fill="#232327"/>
<circle cx="16" cy="16" r="16" fill="#FF4E41"/>
<path d="M19.7578 10.7016V12.5096H15.1018V15.3736H18.6698V17.1496H15.1018V21.8696H12.8618V10.7016H19.7578Z" fill="#232327"/>
</svg>
